<?xml version="1.0" encoding="UTF-8" standalone="no"?>
<!-- Created with Inkscape (http://www.inkscape.org/) -->

<svg
   xmlns:dc="http://purl.org/dc/elements/1.1/"
   xmlns:cc="http://creativecommons.org/ns#"
   xmlns:rdf="http://www.w3.org/1999/02/22-rdf-syntax-ns#"
   xmlns:svg="http://www.w3.org/2000/svg"
   xmlns="http://www.w3.org/2000/svg"
   xmlns:sodipodi="http://sodipodi.sourceforge.net/DTD/sodipodi-0.dtd"
   xmlns:inkscape="http://www.inkscape.org/namespaces/inkscape"
   width="98.37471mm"
   height="108.42852mm"
   viewBox="0 0 98.37471 108.42852"
   version="1.1"
   id="svg1099"
   inkscape:version="0.92.4 (5da689c313, 2019-01-14)"
   sodipodi:docname="backpackers.svg">
  <defs
     id="defs1093" />
  <sodipodi:namedview
     id="base"
     pagecolor="#ffffff"
     bordercolor="#666666"
     borderopacity="1.0"
     inkscape:pageopacity="0.0"
     inkscape:pageshadow="2"
     inkscape:zoom="0.35"
     inkscape:cx="-275.5236"
     inkscape:cy="316.33289"
     inkscape:document-units="mm"
     inkscape:current-layer="layer1"
     showgrid="false"
     fit-margin-top="0"
     fit-margin-left="0"
     fit-margin-right="0"
     fit-margin-bottom="0"
     inkscape:window-width="1850"
     inkscape:window-height="1029"
     inkscape:window-x="70"
     inkscape:window-y="27"
     inkscape:window-maximized="1" />
  <metadata
     id="metadata1096">
    <rdf:RDF>
      <cc:Work
         rdf:about="">
        <dc:format>image/svg+xml</dc:format>
        <dc:type
           rdf:resource="http://purl.org/dc/dcmitype/StillImage" />
        <dc:title></dc:title>
      </cc:Work>
    </rdf:RDF>
  </metadata>
  <g
     inkscape:label="Layer 1"
     inkscape:groupmode="layer"
     id="layer1"
     transform="translate(-52.866214,-124.10122)">
    <g
       id="g114"
       transform="matrix(0.35277777,0,0,-0.35277777,149.57981,203.46836)"
       inkscape:export-xdpi="132.2"
       inkscape:export-ydpi="132.2"
       style="fill:#f5f5f5;fill-opacity:1">
      <path
         d="m 0,0 c -0.807,1.049 -1.915,1.334 -2.863,1.346 -0.906,3.885 -2.109,8.592 -3.644,14.235 -3.941,14.495 -15.336,27.473 -20.944,33.196 2.186,0.49 4.268,1.073 5.363,1.691 2.954,1.67 1.156,5.008 1.413,9.246 0.204,3.373 -5.124,11.624 -9.184,15.629 l 0.488,0.143 c 0,0 14.984,42.703 7.822,73.914 0,0 -5.859,20.503 -11.545,35.334 0,0 -2.589,17.02 -2.669,21.926 -0.079,4.906 -7.521,8.658 -14.342,7.31 0,0 -1.765,-0.387 -2.54,3.141 -0.774,3.528 -2.853,10.692 -3.918,6.681 -1.064,-4.01 1.429,-14.573 1.429,-14.573 0,0 2.933,-12.753 7.118,-18.798 4.185,-6.045 10.843,-55.083 11.756,-58.335 0.623,-2.216 -8.452,-25.434 -14.298,-40.003 -1.366,9.063 -12.784,13.182 -17.075,15.787 -2.273,1.38 -3.968,4.454 -5.123,7.305 0.238,0.451 0.465,0.882 0.671,1.257 1.259,2.29 0.856,16.265 -14.04,20.375 -14.896,4.109 -30.135,-6.849 -34.244,-16.095 -4.11,-9.246 1.883,-22.602 1.883,-22.602 0.173,-0.176 0.369,-0.336 0.576,-0.485 2.446,-10.725 17.402,-23.485 17.402,-23.485 0.691,-0.827 1.328,-1.658 1.937,-2.492 l -12.766,-9.879 c 0,0 -9.375,-5.137 -6.164,-21.318 3.21,-16.18 16.651,-44.389 16.993,-46.101 0.067,-0.33 0.324,-2.904 0.669,-6.863 -6.131,-1.091 -13.96,-3.659 -16.934,-9.917 -4.966,-10.445 -3.939,-17.465 6.505,-23.286 2.929,-1.633 7.46,-3.588 12.895,-5.56 0.37,-11.231 0.192,-20.546 -1.251,-22.178 0,0 -16.181,-0.771 -16.694,-7.705 0,0 13.098,-1.798 20.033,-1.028 6.934,0.771 11.814,1.798 12.585,8.476 0.247,2.144 0.441,9.115 0.592,17.591 11.131,-3.074 23.195,-5.438 32.625,-5.52 19.519,-0.172 41.264,8.047 43.662,15.239 0.998,2.994 1.633,6.252 1.806,9.26 0.531,0.583 0.851,1 0.933,1.185 0.24,0.541 0.143,3.028 -0.078,6.069 1.355,0.714 2.407,1.329 3.08,1.81 1.479,0.689 4.111,3.312 4.703,4.791 C 5.308,-21.574 1.712,-2.226 0,0"
         style="fill:#f5f5f5;fill-opacity:1;fill-rule:nonzero;stroke:none"
         id="path116"
         inkscape:connector-curvature="0" />
    </g>
    <g
       id="g118"
       transform="matrix(0.35277777,0,0,-0.35277777,25.803713,242.65506)"
       inkscape:export-xdpi="132.2"
       inkscape:export-ydpi="132.2"
       style="fill:#f5f5f5;fill-opacity:1">
      <path
         d="m 180.2349,100.2982 c -3.512,0.805 -7.043,1.335 -9.211,1.621 -0.008,0.077 -0.013,0.131 -0.019,0.197 l 0.009,0.018 0.183,9.458 0.266,9.591 1.028,0.684 2.988,0.716 c 1.314,-5.932 3.267,-14.888 4.756,-22.285 m 20.565,-12.828 c 0.393,1.858 0.723,3.92 0.97,6.145 0.779,7.013 -1.396,25.934 -2.493,34.67 l 6.088,1.458 c 0.259,12.939 -9.06,32.323 -13.631,41.026 -0.064,2.104 -0.322,4.175 -0.791,6.103 0.158,5.385 -0.666,9.23 -6.295,10.83 -3.056,0.868 -7.084,1.632 -11.032,2.258 -0.492,0.984 -2.662,1.838 -5.886,2.579 0.195,0.85 0.505,1.941 0.994,3.039 1.027,2.312 6.934,0.771 6.934,0.771 10.507,4.024 10.701,16.412 10.914,22.265 0.834,0.71 1.635,1.497 2.356,2.391 0.565,0.701 0.993,1.515 1.319,2.398 0.016,0.003 0.037,-0.009 0.051,-0.001 1.37,0.856 10.958,12.328 12.156,18.321 1.199,5.992 -3.595,8.732 -11.643,11.814 -6.608,2.531 -12.169,-0.361 -13.95,-1.477 -2.164,0.798 -4.639,1.306 -7.452,1.306 -13.527,0 -16.438,-2.739 -16.438,-2.739 0,0 -16.779,-7.192 -15.238,-25.855 0.117,-1.427 0.459,-2.686 0.949,-3.826 0.654,-4.844 1.974,-13.935 2.817,-14.965 1.156,-1.413 0.386,-4.367 1.028,-5.137 0.131,-0.158 0.447,-0.382 0.884,-0.639 -0.434,-1.585 -1.134,-3.201 -2.215,-4.412 -4.481,0.35 -8.712,0.635 -12.176,0.874 -6.813,7.874 -5.643,13.16 -6.924,13.539 -0.142,0.042 -0.548,0.013 -1.156,-0.073 -1.933,14.695 -3.584,29.02 -2.891,30.463 1.466,3.048 12.22,41.203 17.525,46.419 5.304,5.217 10.378,17.286 10.378,17.286 0,0 4.27,9.986 3.805,14.141 -0.463,4.154 -3.762,-2.548 -5.128,-5.893 -1.365,-3.346 -3.133,-2.645 -3.133,-2.645 -6.859,2.564 -15.176,0.203 -16.04,-4.63 -0.866,-4.833 -6.264,-21.182 -6.264,-21.182 -8.262,-13.626 -17.607,-32.824 -17.607,-32.824 -6.042,-14.391 -7.069,-32.424 -6.534,-47.138 -2.406,-0.662 -3.991,-1.161 -4.07,-1.328 -1.287,-2.733 1.957,-22.012 2.655,-26.05 -0.035,-0.479 -0.063,-0.967 -0.079,-1.464 0,0 -1.198,-8.56 2.226,-10.101 1.08,-0.487 2.602,-0.904 4.181,-1.248 -0.147,-1.328 -0.329,-3.145 -0.329,-4.06 0,-1.289 -8.978,-12.461 -12.519,-25.698 -3.15,-0.458 -8.985,-2.042 -9.483,-7.52 -0.621,-6.837 -2.793,-20.018 2.954,-25.981 -0.117,-0.696 -0.243,-1.295 -0.385,-1.757 -0.945,-3.069 1.775,-6.628 3.947,-9.046 -0.305,-1.961 -0.596,-4.022 -0.865,-6.192 -0.688,-5.546 1.562,-10.024 5.557,-13.644 0.149,-0.345 0.307,-0.669 0.467,-0.984 1.204,-7.454 5.969,-20.12 24.282,-23.212 19.153,-3.234 42.63,1.48 54.05,4.304 2.929,-1.354 9.262,-3.722 14.953,-2.079 7.514,2.171 19.744,8.415 18.439,16.504 1.279,1.136 2.31,2.316 2.963,3.53 4.62,8.579 0.34,17.928 -3.195,19.366"
         style="fill:#f5f5f5;fill-opacity:1;fill-rule:nonzero;stroke:none"
         id="path120"
         inkscape:connector-curvature="0"
         inkscape:export-xdpi="132.2"
         inkscape:export-ydpi="132.2" />
    </g>
  </g>
</svg>
